<svg xmlns="http://www.w3.org/2000/svg" width="431.462" height="335.003" viewBox="0 0 431.462 335.003">
  <defs>
    <style>
      .cls-1 {
        fill: #adbec4;
      }

      .cls-2 {
        fill: #ff8b66;
      }

      .cls-3 {
        fill: #cfd8dc;
      }

      .cls-4 {
        fill: #0c476b;
      }

      .cls-5 {
        fill: #0e3944;
      }

      .cls-6 {
        fill: #f7941d;
      }

      .cls-7 {
        fill: #f24052;
      }

      .cls-8 {
        fill: #f2a668;
      }

      .cls-9 {
        fill: #ef6e4b;
      }

      .cls-10 {
        fill: #db614d;
      }

      .cls-11 {
        fill: #1a4850;
      }

      .cls-12 {
        fill: #ffb878;
      }

      .cls-13 {
        fill: #205260;
      }

      .cls-14 {
        fill: #662c33;
      }

      .cls-15 {
        fill: #8bbddb;
      }

      .cls-16 {
        fill: #6097b2;
      }

      .cls-17 {
        fill: #105e99;
      }

      .cls-18 {
        fill: #07262d;
      }

      .cls-19 {
        fill: #ce364c;
      }
    </style>
  </defs>
  <g id="Layer_2" data-name="Layer 2" transform="translate(0 0.023)">
    <g id="OBJECTS">
      <rect id="Rectangle_28" data-name="Rectangle 28" class="cls-1" width="58.61" height="4.47" rx="1.75" transform="translate(0 330.51)"/>
      <rect id="Rectangle_29" data-name="Rectangle 29" class="cls-1" width="58.61" height="4.47" rx="1.75" transform="translate(365.16 330.51)"/>
      <rect id="Rectangle_30" data-name="Rectangle 30" class="cls-1" width="58.61" height="4.47" rx="1.75" transform="translate(76.68 330.51)"/>
      <rect id="Rectangle_31" data-name="Rectangle 31" class="cls-1" width="92.63" height="4.47" rx="1.75" transform="translate(146.58 330.51)"/>
      <rect id="Rectangle_32" data-name="Rectangle 32" class="cls-1" width="89.63" height="4.47" rx="1.75" transform="translate(249.67 330.51)"/>
      <path id="Path_1" data-name="Path 1" class="cls-2" d="M26.46,262.43s15,40,15.95,52.66c0,0,3.76,3,10.19.34,0,0,.18-38.27-6.11-50.09S26.46,262.43,26.46,262.43Z"/>
      <path id="Path_2" data-name="Path 2" class="cls-3" d="M23.17,332.7H54.81a14.49,14.49,0,0,0-.7-9.23S55.5,318,55,316.2s-7-4-8.79-2.11A5.08,5.08,0,0,0,45,318c-.88-5-3.16-5.43-5.37-3.47s.49,1,0,4.29a2.45,2.45,0,0,1-.18.67,3.45,3.45,0,0,1-.86,1.27,6.771,6.771,0,0,1-1.25.93,7.508,7.508,0,0,1-.79.43,12.737,12.737,0,0,1-1.68.62,15.592,15.592,0,0,1-3,.57c-4.33.4-6.06.71-8.06,2.95s-.73,4-.73,4Z"/>
      <path id="Path_3" data-name="Path 3" class="cls-1" d="M39.47,319.48a3.45,3.45,0,0,1-.86,1.27,3.72,3.72,0,0,1,4.38.9l.81-1C41.83,318.17,39.65,319.37,39.47,319.48Z"/>
      <path id="Path_4" data-name="Path 4" class="cls-1" d="M40.12,324l1.1-.69a3.41,3.41,0,0,0-2.61-2.52,6.771,6.771,0,0,1-1.25.93A3.7,3.7,0,0,1,40.12,324Z"/>
      <path id="Path_5" data-name="Path 5" class="cls-1" d="M37.06,325.16l1.16-.58a3.6,3.6,0,0,0-1.65-2.47,12.738,12.738,0,0,1-1.68.62,3.76,3.76,0,0,1,2.17,2.43Z"/>
      <path id="Path_6" data-name="Path 6" class="cls-3" d="M91,325.12a6.75,6.75,0,0,0,2.38-2.71,27.08,27.08,0,0,0,0-7.66c-.62-3.92,1.09-7.12,6.64-8.33s8.6,1.43,7.35,12.28h0c.82,4.51,1,9.65-.88,14H89.91S87.29,327.08,91,325.12Z"/>
      <path id="Path_7" data-name="Path 7" class="cls-2" d="M76.46,266.64a50.48,50.48,0,0,0,6.1,21.93c6.22,11.3,13.91,26.82,13.91,26.82s5.12,5,8.38-3.28c0,0-2.3-28.82-7.57-39.36S76.46,266.64,76.46,266.64Z"/>
      <path id="Path_8" data-name="Path 8" class="cls-3" d="M103.66,316.42s1.54-3.14.17-4.49-3,1.15-5.32.6-2.89-2.22-3.49.05S95.15,322,103.66,316.42Z"/>
      <path id="Path_9" data-name="Path 9" class="cls-1" d="M94.85,316.28s6.29,2.22,9.54,0l-.82,2.72s-6.83.72-7.77-1Z"/>
      <path id="Path_10" data-name="Path 10" class="cls-1" d="M94.94,319.66s5.75-.8,8.53.63v1.34s-7.5-1.75-9.93,0Z"/>
      <path id="Path_11" data-name="Path 11" class="cls-1" d="M103.74,324.44a5.24,5.24,0,0,0-4.61-2.92,9.17,9.17,0,0,0-5.86,1.73S98.82,321,103.74,324.44Z"/>
      <path id="Path_12" data-name="Path 12" class="cls-4" d="M102.14,263.79a16.659,16.659,0,0,1-1.87,3.13c-.15.21-.32.42-.5.64-3.46,4.28-11.07,10-25,4.36,0,0-.35-.8-.84-2.06-.08-.22-.17-.45-.27-.7a51.39,51.39,0,0,1-2.5-8.35c-3.63-20.16-5-34.77-6.9-43.06C59,230.63,47,255.62,46.44,256.69c-.67,1.33,2,9.93,2,9.93-10,3.26-24.33-.9-24.33-.9s-4.34-12.7-5-21.76c-.51-6.94,17-45.82,25.18-63.64.21-.47.42-.91.61-1.35,2.16-4.67,3.54-7.58,3.54-7.58l14,4.73,34,15.3s.6.69,1.16,7.7v.56c.32,4.17.62,10.42.8,19.78V220q.06,3.06.1,6.57v19.82c0,2.21,0,4.5-.06,6.89,0,2.18,1.7,6.3,2.78,8.67.09.2.18.39.25.56C101.9,263.31,102.14,263.79,102.14,263.79Z"/>
      <path id="Path_13" data-name="Path 13" class="cls-5" d="M100.27,266.92c-.15.21-.32.42-.5.64-1.55-2.64-4-7.14-4.52-10.22-.81-4.42-1.2-21.8,0-40.09,1.16-17.73-2.74-35.12-2.78-35.3l.73-.16c0,.17,4,17.67,2.8,35.51-1.19,18.23-.81,35.53,0,39.9C96.51,260.05,98.75,264.29,100.27,266.92Z"/>
      <path id="Path_14" data-name="Path 14" class="cls-5" d="M95,197.22c-10.86-3.91-13.64-12.83-13.66-12.92l.72-.21c0,.09,2.7,8.64,13.2,12.43Z"/>
      <path id="Path_15" data-name="Path 15" class="cls-5" d="M54.9,177.31a3.74,3.74,0,0,1-1.6.25c-2.11.13-5.95.36-9,2.76.21-.47.42-.91.61-1.35a17.65,17.65,0,0,1,8.35-2.16,7,7,0,0,0,1.24-.13Z"/>
      <path id="Path_16" data-name="Path 16" class="cls-5" d="M64,217.92c-7.9-15.76,2.32-36.94,2.43-37.15l.67.33c-.1.21-10.16,21.06-2.43,36.48Z"/>
      <path id="Path_17" data-name="Path 17" class="cls-5" d="M62.4,202.54a3.84,3.84,0,0,1-1.21-.17l.23-.71a3.63,3.63,0,0,0,2.8-.39c1.15-.74,1.86-2.24,2.12-4.45.78-6.65,5.88-14.87,6.09-15.22l.64.4c0,.08-5.22,8.43-6,14.91-.29,2.45-1.12,4.13-2.47,5a4.1,4.1,0,0,1-2.2.63Z"/>
      <path id="Path_18" data-name="Path 18" class="cls-6" d="M24.34,28.92s1.23-2.85,6.45-2.85c4,0,5.56,2.22,5.56,2.22,2.41,7,5,34,5.92,34.92.47.48,30.48,23.4,30.48,23.4-16.18.3-16.81,27.2-16.81,27.2-.53-6.56-23.1-23.08-28.84-33.87C21.76,69.89,19.18,45.29,24.34,28.92Z"/>
      <path id="Path_19" data-name="Path 19" class="cls-6" d="M121.43,125c-2.46,27.14-12.26,53.37-15.66,64.3-.73,2.36-1.17,3.68-1.17,3.68s-53.23-6.9-59.53-21.28c0,0,.1-.39.27-1.13,1.59-6.54,9.45-33,10.35-54.69,1-24.11,9.08-32.64,14-31.54,0,0,11,8.7,18.06,8.67s23.88-7.67,23.88-7.67S124.42,92,121.43,125Z"/>
      <circle id="Ellipse_5" data-name="Ellipse 5" class="cls-7" cx="3.19" cy="3.19" r="3.19" transform="translate(84.61 76.75)"/>
      <path id="Path_20" data-name="Path 20" class="cls-6" d="M153.57,30.82S152.34,28,147.12,28c-4,0-5.56,2.22-5.56,2.22-2.41,7-5,34-5.92,34.91-.47.49-30.48,23.4-30.48,23.4-.72,18.8,16.81,27.2,16.81,27.2.53-6.55,23.1-23.07,28.84-33.86C156.15,71.8,158.73,47.2,153.57,30.82Z"/>
      <path id="Path_21" data-name="Path 21" class="cls-8" d="M81.05,92.65s-2.91,1.17-3.51,2.44,1.64,6.48,5.93,6.87S95.94,97.4,95.6,95.79,89.16,92.12,81.05,92.65Z"/>
      <path id="Path_22" data-name="Path 22" class="cls-9" d="M80.63,86.61s1.6,6.61-.84,9.24c0,0,4,6.45,13-.06,0,0-1.72-4.34,0-7.17Z"/>
      <path id="Path_23" data-name="Path 23" class="cls-7" d="M106.14,68.62a3.25,3.25,0,0,0-2.62-3.19,3.25,3.25,0,0,0-2.22-5.54,3.24,3.24,0,0,0-2.72-5,3.28,3.28,0,0,0-2,.72,3.24,3.24,0,0,0-6-1.76,3.23,3.23,0,0,0-5.88-.56,3.23,3.23,0,0,0-5.47,2.11,3.223,3.223,0,0,0-4.88,3.49h-.1a3.25,3.25,0,0,0-2.34,5.5,3.25,3.25,0,0,0-.49,6.23,3.23,3.23,0,0,0,1.48,5.84,6.66,6.66,0,0,0,2.94,4.09c1.48,1.35,13.47,2.72,19.21,2.23a3.25,3.25,0,0,0,5.59-2.26h0a3.24,3.24,0,0,0,2.92-3.22,3,3,0,0,0-.13-.85,3.27,3.27,0,0,0,2-3,3.18,3.18,0,0,0-.76-2.06,3.23,3.23,0,0,0,1.47-2.77Z"/>
      <path id="Path_24" data-name="Path 24" class="cls-2" d="M98.32,74.75s3.4-3.39,3.82.57c.48,4.59-3.69,6.44-4.5,5S98.32,74.75,98.32,74.75Z"/>
      <path id="Path_25" data-name="Path 25" class="cls-2" d="M74.54,75s-3.4-3.39-3.82.57c-.48,4.59,3.69,6.44,4.5,5S74.54,75,74.54,75Z"/>
      <path id="Path_26" data-name="Path 26" class="cls-2" d="M86.79,91.38c7.53,0,11.79-4.93,11.79-19.69,0-7.62-3.88-12.29-12.32-12.29s-12,4.67-12,12.29C74.26,87.55,79,91.38,86.79,91.38Z"/>
      <path id="Path_27" data-name="Path 27" class="cls-10" d="M76.76,77a1.79,1.79,0,1,0,1.95-1.07A1.59,1.59,0,0,0,76.76,77Z"/>
      <path id="Path_28" data-name="Path 28" class="cls-10" d="M92.26,77.37a1.79,1.79,0,1,0,1.65-1.51,1.6,1.6,0,0,0-1.65,1.51Z"/>
      <path id="Path_29" data-name="Path 29" class="cls-7" d="M80.08,69a.36.36,0,0,0,.28-.08,4.35,4.35,0,0,1,3-.59.38.38,0,1,0,.14-.74,5,5,0,0,0-3.62.74.36.36,0,0,0-.07.52.41.41,0,0,0,.27.15Z"/>
      <path id="Path_30" data-name="Path 30" class="cls-7" d="M94.5,69.09a.4.4,0,0,0,.25-.14.39.39,0,0,0,0-.53,5,5,0,0,0-3.61-.84.375.375,0,1,0,.12.74,4.41,4.41,0,0,1,3,.69A.4.4,0,0,0,94.5,69.09Z"/>
      <path id="Path_31" data-name="Path 31" class="cls-11" d="M80.86,73.29c0,.94.42,1.7.94,1.7s.94-.76.94-1.7-.42-1.69-.94-1.69S80.86,72.35,80.86,73.29Z"/>
      <path id="Path_32" data-name="Path 32" class="cls-11" d="M90.92,73.29c0,.94.42,1.7.94,1.7s.94-.76.94-1.7-.42-1.69-.94-1.69S90.92,72.35,90.92,73.29Z"/>
      <path id="Path_33" data-name="Path 33" class="cls-7" d="M95.23,63S90,62.65,78.47,61.82c0,0-4.21,4.39-3.91,15.19,0,0-6.74-19.45,12.94-19.45s10.82,19,10.82,19S98.89,66.66,95.23,63Z"/>
      <path id="Path_34" data-name="Path 34" class="cls-10" d="M86.31,78.32l.56-.56-1.49-1.49c1.45-2,1.44-6.77,1.44-7H86s0,5.14-1.47,6.74l-.26.29Z"/>
      <path id="Path_35" data-name="Path 35" class="cls-11" d="M91.31,80.79s-7.42.31-11.16-.68a5,5,0,0,0,5.09,5.66C91.31,86.06,91.31,80.79,91.31,80.79Z"/>
      <path id="Path_36" data-name="Path 36" class="cls-12" d="M31.31,25.35s-5.58.26-5.56,2,0,4,4.69,3.7,4.72-2.08,4.77-3.83S32.84,25.21,31.31,25.35Z"/>
      <path id="Path_37" data-name="Path 37" class="cls-12" d="M148.54,26.38s-5.59,0-5.66,1.75-.19,3.94,4.49,3.94,4.82-1.83,5-3.57S150.07,26.31,148.54,26.38Z"/>
      <path id="Path_38" data-name="Path 38" class="cls-2" d="M22.53,14.19a23.78,23.78,0,0,1,2.12,4.45c.55,3,.88,4.62,1.92,6s.49,3.77.49,3.77,4,2.08,7.44-.49c0,0-.36-2.38,0-3.06.7-1.35,2.94-2.08,3.71-4.81a21.26,21.26,0,0,1,3.06-5.79s-.66-1.42-1.85-.56-2,3.07-2.64,3.29a1.79,1.79,0,0,1-.4.09h0A1.6,1.6,0,0,1,35,16.73a.21.21,0,0,1-.08-.06c-1.1-1.28-1.35-5-1.31-6.71.07-2.33,0-5.55-1.44-5s-.12,1.85-1.22,7l-.54.06c-.1.37-1.07-3.11-1.31-6.39-.16-2.25-1.64-1.42-2-.71s.17,2.95.27,4.58c.07,1.08.16,2.2.22,2.87l-.62.34c-2.25-3.9-1.48-5.53-2.79-5.6s-.83,3.22-.13,4.47a12.71,12.71,0,0,1,.82,2.79c-2.3-2.66-2.05-4-3.1-3.88S21.73,13.28,22.53,14.19Z"/>
      <path id="Path_39" data-name="Path 39" class="cls-9" d="M32.45,20.31c.78-2.14,3.56-3.12,3.9-3.23A1.6,1.6,0,0,1,35,16.73a3.92,3.92,0,0,0-2.55,3.58Z"/>
      <path id="Path_40" data-name="Path 40" class="cls-2" d="M155.57,14.93a23.78,23.78,0,0,0-2.12,4.45c-.55,3-.88,4.62-1.92,6s-.49,3.77-.49,3.77-4,2.08-7.44-.49c0,0,.36-2.38,0-3.06-.7-1.36-2.94-2.08-3.7-4.81A21.47,21.47,0,0,0,136.83,15s.66-1.43,1.86-.56,2,3.06,2.63,3.29a2.59,2.59,0,0,0,.4.09h0a1.64,1.64,0,0,0,1.32-.35.21.21,0,0,0,.08-.06c1.1-1.28,1.35-5,1.31-6.71-.07-2.33,0-5.55,1.44-5s.12,1.85,1.22,7l.54.06c.1.37,1.07-3.12,1.31-6.39.16-2.26,1.64-1.42,2-.71s-.16,3-.26,4.58c-.08,1.08-.17,2.2-.23,2.87l.62.34c2.25-3.91,1.48-5.53,2.79-5.61s.83,3.22.13,4.48a13.109,13.109,0,0,0-.82,2.79c2.3-2.66,2.05-4.05,3.1-3.88S156.37,14,155.57,14.93Z"/>
      <path id="Path_41" data-name="Path 41" class="cls-9" d="M145.65,21.05c-.78-2.15-3.56-3.12-3.9-3.23a1.64,1.64,0,0,0,1.32-.35,3.91,3.91,0,0,1,2.58,3.58Z"/>
      <path id="Path_42" data-name="Path 42" class="cls-8" d="M105.77,189.33c-.73,2.36-1.17,3.68-1.17,3.68s-53.23-6.9-59.53-21.28c0,0,.1-.39.27-1.13C48.72,176.21,89.52,189.85,105.77,189.33Z"/>
      <path id="Path_43" data-name="Path 43" class="cls-5" d="M300.31,332.7H326.2c1.81-10.29-1.07-20.6-1.07-20.6l-11.84-2c-1.08,6.51-2.37,9.07-4.17,10.4h0c-1.31.95-2.88,1.26-4.83,1.94a6.21,6.21,0,0,0-4,3.72,11,11,0,0,0,.02,6.54Z"/>
      <path id="Path_44" data-name="Path 44" class="cls-13" d="M300.28,326.13c6.38.8,20.41,2.16,19.55-1.53-.71-3.09-6.63-3.92-10.71-4.13h0c-1.31.95-2.88,1.26-4.83,1.94a6.21,6.21,0,0,0-4.01,3.72Z"/>
      <path id="Path_45" data-name="Path 45" class="cls-5" d="M387,332.7h25.9a12,12,0,0,0,.44-5,6.27,6.27,0,0,0-4.41-5.31c-2.24-.78-4-1.07-5.37-2.39s-2.68-4.11-3.64-9.95l-11.84,2S385.23,322.41,387,332.7Z"/>
      <path id="Path_46" data-name="Path 46" class="cls-13" d="M413.36,327.72a6.27,6.27,0,0,0-4.41-5.31c-2.24-.78-4-1.07-5.37-2.39-3.28,1-7.86,2.87-9.28,5.67C392.32,329.55,407.45,328.94,413.36,327.72Z"/>
      <path id="Path_47" data-name="Path 47" class="cls-6" d="M401.8,311.84s-2,6.43-14.87,2c0,0-9.58-72-11.06-73.54s-16.68-48.59-16.68-48.59h-4.76s-15.2,47-16.68,48.59-11.05,73.54-11.05,73.54c-12.91,4.44-14.88-2-14.88-2l6.2-77.58,12.92-80,25.87,2.89,25.87-2.89,3.37,20.89.14.82,9.41,58.28Z"/>
      <path id="Path_48" data-name="Path 48" class="cls-14" d="M386.19,176a17.08,17.08,0,0,1-11.61-10.43l.72-.22a16.29,16.29,0,0,0,10.75,9.83Z"/>
      <path id="Path_49" data-name="Path 49" class="cls-14" d="M358.59,184.6a3.46,3.46,0,0,1-2.62,1.09c0,1.93,0,4-.11,6h-.75a120.119,120.119,0,0,0-.54-17.06l.74-.09c0,.08.53,4.64.64,10.38a2.77,2.77,0,0,0,2.1-.84c2.47-2.61,1-10.15,1-10.22l.74-.14C359.87,174.05,361.33,181.72,358.59,184.6Z"/>
      <path id="Path_50" data-name="Path 50" class="cls-2" d="M428.32,13.55a24.081,24.081,0,0,0-4.38,2.28c-2.23,2-3.48,3.16-5.13,3.62S417,22.92,417,22.92s-6.33,2.71-7.5-1.39c0,0,2.7-5.93,2.82-6.68.26-1.5-1.09-3.43-.06-6.07a21.51,21.51,0,0,0,1.05-6.47s1.38-.74,1.81.67-.27,3.64.12,4.21a2,2,0,0,0,.27.31h0a1.63,1.63,0,0,0,1.26.52.19.19,0,0,0,.1,0c1.65-.35,4.11-3.19,5.09-4.56,1.35-1.9,3.36-4.42,4.16-3.13s-1,1.55-3.23,6.31l.39.38c-.14.35,2.74-1.84,4.9-4.32,1.49-1.7,2.16-.14,2,.62s-1.91,2.26-3,3.5c-.71.81-1.46,1.65-1.91,2.15l.29.65c4.15-1.77,4.51-3.52,5.61-2.8s-1.17,3.1-2.53,3.68a12.419,12.419,0,0,0-2.34,1.72c3.43-.73,4.07-2,4.81-1.22S429.5,13.31,428.32,13.55Z"/>
      <path id="Path_51" data-name="Path 51" class="cls-9" d="M416.71,12.46c.67-2.18-1-4.64-1.16-4.93a1.63,1.63,0,0,0,1.26.52,3.92,3.92,0,0,1-.1,4.41Z"/>
      <path id="Path_52" data-name="Path 52" class="cls-2" d="M234,50.57a23.67,23.67,0,0,1,4.9.51c2.83,1.07,4.4,1.65,6.11,1.47s2.94,2.58,2.94,2.58,6.88.19,6.46-4.05c0,0-4.69-4.52-5.08-5.18-.79-1.3-.24-3.59-2.17-5.67a21.3,21.3,0,0,1-3.36-5.63s-1.55-.18-1.44,1.29,1.59,3.28,1.44,4a1.63,1.63,0,0,1-.13.39,1.61,1.61,0,0,1-1,.95.24.24,0,0,1-.1,0c-1.66.27-5-1.46-6.41-2.37-1.95-1.27-4.75-2.88-5-1.38s1.51,1.07,5.32,4.68l-.22.49c.26.28-3.22-.71-6.14-2.21-2-1-2.07.66-1.63,1.31s2.61,1.39,4.05,2.16l2.56,1.3v.71c-4.5-.12-5.48-1.62-6.23-.54s2.31,2.39,3.75,2.44a12.451,12.451,0,0,1,2.8.75c-3.46.58-4.51-.36-4.92.63S232.76,50.78,234,50.57Z"/>
      <path id="Path_53" data-name="Path 53" class="cls-9" d="M244.35,45.28c-1.43-1.78-.81-4.66-.73-5a1.61,1.61,0,0,1-1,.95A3.89,3.89,0,0,0,244.35,45.28Z"/>
      <path id="Path_54" data-name="Path 54" class="cls-3" d="M418.73,24.23s-.69,2.53-1.81,6.35c-.45,1.56-1,3.33-1.56,5.24-.9,3-1.93,6.21-3,9.45-.59,1.77-1.2,3.53-1.82,5.23a89.859,89.859,0,0,1-4.69,11.1c-.21.39-.42.76-.62,1.1A23.467,23.467,0,0,1,402.7,66a86.63,86.63,0,0,1-6.7,6.68c-1.31,1.21-2.7,2.45-4.13,3.69-2.34,2-4.79,4.09-7.22,6.07-1.52,1.25-3,2.47-4.49,3.63-7.49,6-13.69,10.56-13.69,10.56L355.33,73.79c3.19-2.16,9.07-5.78,15.22-9.48l4.36-2.63,6.5-3.87,4.45-2.62,4.67-2.75,2-1.15,1.36-2.64c1-1.93,2.46-4.77,4.14-8,.74-1.42,1.52-2.92,2.33-4.44,1.27-2.42,2.6-4.91,3.88-7.29.83-1.54,1.65-3,2.41-4.43a93.551,93.551,0,0,1,4.88-8.22,12,12,0,0,1,7.2,7.96Z"/>
      <path id="Path_55" data-name="Path 55" class="cls-15" d="M384.69,82.44c-1.52,1.25-3,2.47-4.49,3.63a42.579,42.579,0,0,0-9.65-21.76l4.36-2.63a47.22,47.22,0,0,1,9.78,20.76Z"/>
      <path id="Path_56" data-name="Path 56" class="cls-15" d="M396,72.68c-1.31,1.21-2.7,2.45-4.13,3.69-2.61-9.9-7.41-15.69-10.5-18.56l4.45-2.62A43,43,0,0,1,396,72.68Z"/>
      <path id="Path_57" data-name="Path 57" class="cls-15" d="M405.83,61.6c-.21.39-.42.76-.62,1.1A23.466,23.466,0,0,1,402.7,66a50.87,50.87,0,0,0-12.17-13.56l2-1.15,1.36-2.64A54.88,54.88,0,0,1,405.83,61.6Z"/>
      <path id="Path_58" data-name="Path 58" class="cls-15" d="M412.34,45.27c-.59,1.77-1.2,3.53-1.82,5.23A64.889,64.889,0,0,0,398,40.67c.74-1.42,1.52-2.92,2.33-4.44a71.571,71.571,0,0,1,12.01,9.04Z"/>
      <path id="Path_59" data-name="Path 59" class="cls-15" d="M416.92,30.58c-.45,1.56-1,3.33-1.56,5.24a39.11,39.11,0,0,0-11.16-6.88c.83-1.54,1.65-3,2.41-4.43a45.51,45.51,0,0,1,10.31,6.07Z"/>
      <path id="Path_60" data-name="Path 60" class="cls-3" d="M324.27,79.71l-2,25.35s-7-1.87-15.79-4.54c-1.69-.51-3.44-1-5.21-1.61-3.13-1-6.34-2-9.44-3.14-1.69-.59-3.34-1.18-4.93-1.79a90.759,90.759,0,0,1-9.65-4.15,23.542,23.542,0,0,1-3.45-2.1c-.29-.22-.59-.47-.91-.75a78.312,78.312,0,0,1-7.34-7.51c-1.11-1.28-2.25-2.61-3.4-4-2.25-2.71-4.5-5.53-6.56-8.18-1.11-1.41-2.15-2.77-3.12-4-3.54-4.66-6-8.07-6-8.07.25-5.91,4.64-7.59,4.64-7.59,1.56,1,5.2,3.83,9.44,7.29l3.91,3.21c2.25,1.86,4.54,3.78,6.67,5.58L275,66.92l4.74,4,1.74,1.48,2.92.45,6.4,1,5,.8,6.84,1.12,5,.82C314.35,77.78,320.69,78.91,324.27,79.71Z"/>
      <path id="Path_61" data-name="Path 61" class="cls-15" d="M306.48,100.52c-1.69-.51-3.44-1-5.21-1.61a72.391,72.391,0,0,1,1.38-23.09l5,.82a68.241,68.241,0,0,0-1.17,23.88Z"/>
      <path id="Path_62" data-name="Path 62" class="cls-15" d="M295.81,74.7a70.749,70.749,0,0,0-4,21.07c-1.69-.59-3.34-1.18-4.93-1.79a75.049,75.049,0,0,1,3.87-20.08Z"/>
      <path id="Path_63" data-name="Path 63" class="cls-15" d="M284.37,72.89a94.121,94.121,0,0,0-7.12,16.94,23.539,23.539,0,0,1-3.45-2.1c-.29-.22-.59-.47-.91-.75a101.212,101.212,0,0,1,6.82-16l1.74,1.48Z"/>
      <path id="Path_64" data-name="Path 64" class="cls-15" d="M275,66.92a99.3,99.3,0,0,0-9.42,12.55c-1.11-1.28-2.25-2.61-3.4-4a105.311,105.311,0,0,1,9-11.8Z"/>
      <path id="Path_65" data-name="Path 65" class="cls-15" d="M264.46,58.11a92,92,0,0,0-8.87,9.2c-1.11-1.41-2.15-2.77-3.12-4a95.1,95.1,0,0,1,8.08-8.37Z"/>
      <path id="Path_66" data-name="Path 66" class="cls-3" d="M391.21,160.33s-14,14.63-33,18.25a193.061,193.061,0,0,1-31.69,3.22s-.85-3.81-2.16-9.79c-.33-1.54-.7-3.23-1.09-5-.7-3.23-1.48-6.84-2.29-10.66q-.52-2.44-1.06-5c-.66-3.11-1.33-6.31-2-9.52-.34-1.65-.68-3.31-1-5-.83-4.07-1.64-8.1-2.38-11.92q-.51-2.59-1-5c-.87-4.58-1.6-8.72-2.13-12.09-.31-2-.55-3.73-.7-5.12-.05-.5-.09-1-.12-1.37-.25-3.47-.38-6.69-.42-9.58V86.58c.09-5.51.42-8.88.42-8.88,3.95-2.7,31.18,6,31.18,6S361.89,66.41,365,67.66a12.2,12.2,0,0,1,5.08,4.57,35,35,0,0,1,2.64,4.5,79.735,79.735,0,0,1,4.07,9.94c.58,1.72,1.15,3.52,1.71,5.38.92,3.07,1.78,6.3,2.61,9.62.41,1.68.82,3.39,1.21,5.11.74,3.24,1.44,6.53,2.08,9.81q.53,2.61,1,5.19c.55,3,1.07,5.88,1.54,8.7.31,1.82.6,3.61.87,5.34.61,3.85,1.14,7.44,1.59,10.62.27,1.95.51,3.74.72,5.35C390.86,157.08,391.21,160.33,391.21,160.33Z"/>
      <path id="Path_67" data-name="Path 67" class="cls-15" d="M372.76,76.73c-6.08,6.2-16.79,15.33-29.11,17.79a42.25,42.25,0,0,1-8.14.71c-8,0-17.23-1.61-25.33-3.5V86.56c10.78,2.6,23.8,4.79,32.49,3.06,11.61-2.31,22-11.69,27.45-17.39a35,35,0,0,1,2.64,4.5Z"/>
      <path id="Path_68" data-name="Path 68" class="cls-15" d="M378.54,92.05c-6.21,5.82-21.8,16.7-51.42,16.7a134.6,134.6,0,0,1-15.7-1c-.31-2-.55-3.73-.7-5.12,43.15,5.35,61.91-11.48,66.11-16C377.41,88.39,378,90.19,378.54,92.05Z"/>
      <path id="Path_69" data-name="Path 69" class="cls-15" d="M382.36,106.78c-12,6.77-36.59,18.18-65.6,18.18h-2.25q-.51-2.59-1-5c30.1.87,56.17-11.7,67.6-18.22C381.56,103.35,382,105.06,382.36,106.78Z"/>
      <path id="Path_70" data-name="Path 70" class="cls-15" d="M385.44,121.78c-10.42,5.69-37,18.47-67.54,20-.34-1.65-.68-3.31-1-5,31.11-1.45,58.65-15.32,67.55-20.26Q385,119.2,385.44,121.78Z"/>
      <path id="Path_71" data-name="Path 71" class="cls-15" d="M387.85,135.82c-11.93,7-37.91,20-66.89,20.5q-.52-2.44-1.06-5c29.41-.26,56.38-14.44,67.08-20.85C387.29,132.3,387.58,134.09,387.85,135.82Z"/>
      <path id="Path_72" data-name="Path 72" class="cls-15" d="M390.16,151.79C377.87,158.64,350.7,172,326.11,172h-1.77c-.33-1.54-.7-3.23-1.09-5,25.06,1.17,54.87-14.13,66.19-20.54C389.71,148.39,390,150.18,390.16,151.79Z"/>
      <path id="Path_73" data-name="Path 73" class="cls-9" d="M345.51,73.58s-.82,6.78,1.68,8.86c0,0-1.26,4.83-5,5.75-4.34,1.06-6.79-3.5-6.79-3.5s1.14-6.62-1.59-8.35Z"/>
      <path id="Path_74" data-name="Path 74" class="cls-6" d="M348.79,59.21s2.65-4.49-3.69-11.6c0,0-3-6.81-13.33-8.38s-18,9.71-18,15.9,3.67,0,3.67,0,.83,4.34,2,6.27c0,0-.39,6.24,3.55,6.25S348.79,59.21,348.79,59.21Z"/>
      <path id="Path_75" data-name="Path 75" class="cls-2" d="M325.07,66.7s-4.11-2-3.29,1.67c1,4.31,5.3,4.72,5.6,3.15S325.07,66.7,325.07,66.7Z"/>
      <path id="Path_76" data-name="Path 76" class="cls-2" d="M346.7,59.68s2.05-4.1,3.63-.64c1.83,4-1.38,7-2.56,5.88S346.7,59.68,346.7,59.68Z"/>
      <path id="Path_77" data-name="Path 77" class="cls-2" d="M340.58,78.26c-6.84,2.29-12.19-.88-16.67-14.26-2.32-6.9-.23-12.32,7.43-14.88s12.29.59,14.6,7.49C350.77,71,347.63,75.9,340.58,78.26Z"/>
      <path id="Path_78" data-name="Path 78" class="cls-10" d="M345.28,62.14a1.71,1.71,0,1,1-2.1-.38,1.53,1.53,0,0,1,2.1.38Z"/>
      <path id="Path_79" data-name="Path 79" class="cls-10" d="M331.36,67.23a1.71,1.71,0,1,1-1.95-.86A1.53,1.53,0,0,1,331.36,67.23Z"/>
      <path id="Path_80" data-name="Path 80" class="cls-12" d="M339.83,56.25a.35.35,0,0,1-.28,0,4.21,4.21,0,0,0-2.95-.07.358.358,0,1,1-.25-.67,4.77,4.77,0,0,1,3.53.11.34.34,0,0,1,.15.48.35.35,0,0,1-.2.15Z"/>
      <path id="Path_81" data-name="Path 81" class="cls-12" d="M327,60.56a.36.36,0,0,1-.27,0,.35.35,0,0,1-.17-.47,4.77,4.77,0,0,1,2.75-2.22.36.36,0,0,1,.45.24.37.37,0,0,1-.24.45,4.09,4.09,0,0,0-2.31,1.83.39.39,0,0,1-.21.17Z"/>
      <path id="Path_82" data-name="Path 82" class="cls-11" d="M340.45,60.07c.29.85.14,1.66-.33,1.82s-1.09-.4-1.37-1.25-.14-1.66.34-1.82S340.17,59.22,340.45,60.07Z"/>
      <path id="Path_83" data-name="Path 83" class="cls-11" d="M331.33,63.13c.29.85.13,1.66-.34,1.82s-1.08-.4-1.37-1.25-.13-1.67.34-1.82S331.05,62.28,331.33,63.13Z"/>
      <path id="Path_84" data-name="Path 84" class="cls-11" d="M334.38,72.2s6.28-1.24,8.88-3.77c0,0-.38,4.69-3.79,5.43A4.94,4.94,0,0,1,334.38,72.2Z"/>
      <path id="Path_85" data-name="Path 85" class="cls-10" d="M338.59,68.4a6.64,6.64,0,0,1-1.61.29l-.05-.76c.79-.05,1.95-.31,2.1-.68.05-.13-.06-.35-.31-.61-1.69-1.76-3.68-7-3.76-7.23l.72-.27s2,5.32,3.6,7c.48.51.64,1,.46,1.42a1.75,1.75,0,0,1-1.15.84Z"/>
      <path id="Path_86" data-name="Path 86" class="cls-12" d="M329.35,46.08c-15.27,5.66-6.1,20.07-6.1,20.07l2.22,2c-1-4.14-.28-6.43-.28-6.43a9.39,9.39,0,0,1-.86-6c1.94-1.63,6.7-4.72,15.49-5.66.07.07,2.37,2.42,2.62,4.72a22.26,22.26,0,0,1,5,7l.27-3.55S344.19,40.58,329.35,46.08Z"/>
      <path id="Path_87" data-name="Path 87" class="cls-15" d="M327.61,313.4l-6.73,1.6s-10.52-56.38-12.94-62.34c-2.08-5.14-11-24.8-13.92-39.9a10.51,10.51,0,0,1-2.31-.33h0l-1-.21-1-.21c-.25,15.05-3.52,33.61-4.52,38.81-1.21,6.31-.56,63.7-.56,63.7l-6.91-.23c-13.11-46.47-6.19-63.93-6.19-63.93s-12-41.83-7.76-56.58a99.084,99.084,0,0,1,4.83-13.13c.14-.31.27-.61.42-.9a87.9,87.9,0,0,1,6.11-11.31l14,1.76.13-.23.41.08v4.41l1.78-.09h.4l5.83-.31h.8l5.1-.27s3.06,4.87,7.42,12.7l.49.9c1.55,2.81,3.25,6,5,9.4,7.05,13.65,4.64,52.83,4.64,52.83S331.43,265.27,327.61,313.4Z"/>
      <path id="Path_88" data-name="Path 88" class="cls-16" d="M279.79,170c-.05.1-3.67,8.71-11.16,10.59.14-.31.27-.61.42-.9,6.72-2.09,10-9.88,10-10Z"/>
      <path id="Path_89" data-name="Path 89" class="cls-16" d="M311.58,187.29c-8.39-1.8-12.67-10.58-13.81-13.29-.2-.49-.3-.78-.31-.8l.71-.25s.14.4.4,1c1.2,2.78,5.13,10.47,12.52,12.43Z"/>
      <path id="Path_90" data-name="Path 90" class="cls-16" d="M291.7,212.4l-1-.21A59.76,59.76,0,0,1,285.45,197c-2.62-11.62,3.34-24,3.4-24.12l.68.33c-.06.12-5.91,12.27-3.35,23.63.11.48.22.95.33,1.4l.18.73A53.9,53.9,0,0,0,291.7,212.4Z"/>
      <path id="Path_91" data-name="Path 91" class="cls-16" d="M286.3,199h-.11l.05-.75a1.62,1.62,0,0,0,1.23-.62c.5-.57,1.56-2.37.7-6.77-1.15-5.92,3.23-16.29,3.42-16.73l.69.29c0,.11-4.48,10.6-3.37,16.29.89,4.57-.17,6.6-.88,7.41a2.35,2.35,0,0,1-1.73.88Z"/>
      <path id="Path_92" data-name="Path 92" class="cls-7" d="M286.45,115.4s2.23-4-.9-11-2.49-26,13.19-25.23c0,0,9.3-1.54,14,4.55s8.5,27.57,3.59,43.5S280.15,138.94,286.45,115.4Z"/>
      <path id="Path_93" data-name="Path 93" class="cls-2" d="M303.67,173.69a32.3,32.3,0,0,1-28.51-5.28s-2.57-52.83,2.32-56.37c2.14-1.55,6.36-.31,10.43,1.58a78.359,78.359,0,0,1,10.27,5.95s9.11-1.29,16.29-.5c4.57.49,8.35,1.83,8.52,4.86C323.44,131.74,303.67,173.69,303.67,173.69Z"/>
      <path id="Path_94" data-name="Path 94" class="cls-9" d="M314.86,119.19c-3.08-.32-3.65,2-6.73,3.13a42.881,42.881,0,0,1-8.19,2.13c-1.4.13-2.14,1.87-2.14,1.87s-.5-2.35-1.26-2.55-7.27-6.76-8.63-10.15a78.361,78.361,0,0,1,10.27,5.95s9.11-1.29,16.29-.5Z"/>
      <path id="Path_95" data-name="Path 95" class="cls-3" d="M274.65,320.12c.42-2.87-.64-4.92.11-6.31,1.16-2.14,2.38.57,2.38.57.1-3.26,5.57-3.26,6.12-1.76a11.33,11.33,0,0,0,.48,1.1c.34-.79.92-1.55,1.67-1.1,2.92,1.75-.71,6.26,1.95,9.56,3.38,4.19,1.3,10.52,1.3,10.52H272.45C270.55,323.82,274.22,323,274.65,320.12Z"/>
      <path id="Path_96" data-name="Path 96" class="cls-1" d="M284.66,319.05s-3.84-2-8.92.65l1-1.83a8.93,8.93,0,0,1,7.45-.54Z"/>
      <path id="Path_97" data-name="Path 97" class="cls-1" d="M285.33,322.09a14.57,14.57,0,0,0-10.54.78l.95-1.95s4.83-2.09,8.92-.52Z"/>
      <path id="Path_98" data-name="Path 98" class="cls-3" d="M330.58,320.12c-.42-2.87.64-4.92-.11-6.31-1.16-2.14-2.39.57-2.39.57-.1-3.26-5.57-3.26-6.11-1.76a11.323,11.323,0,0,1-.49,1.1c-.34-.79-.92-1.55-1.66-1.1-2.93,1.75.71,6.26-1.95,9.56-3.39,4.19-1.3,10.52-1.3,10.52h16.21C334.68,323.82,331,323,330.58,320.12Z"/>
      <path id="Path_99" data-name="Path 99" class="cls-1" d="M320.57,319.05s3.83-2,8.91.65l-1-1.83a8.92,8.92,0,0,0-7.45-.54Z"/>
      <path id="Path_100" data-name="Path 100" class="cls-1" d="M319.9,322.09a14.56,14.56,0,0,1,10.54.78l-1-1.95s-4.83-2.09-8.91-.52Z"/>
      <path id="Path_101" data-name="Path 101" class="cls-9" d="M297,102.1s1.17,14.1-2.76,16.12c0,0,2.9,5.34,10.68,2.09,0,0-1.32-7.26,3.83-15.87C312.19,98.67,297,102.1,297,102.1Z"/>
      <path id="Path_102" data-name="Path 102" class="cls-2" d="M311.17,97.25s2.92-3.39,3.59.27c.77,4.23-3,6.25-3.84,5S311.17,97.25,311.17,97.25Z"/>
      <path id="Path_103" data-name="Path 103" class="cls-2" d="M289.06,99.16s-3.4-2.91-3.51.8c-.13,4.31,3.88,5.73,4.54,4.32S289.06,99.16,289.06,99.16Z"/>
      <path id="Path_104" data-name="Path 104" class="cls-2" d="M301.61,113.54c7-.54,10.62-5.42,9.58-19.15-.54-7.09-4.48-11.16-12.33-10.56S288,89,288.57,96.11C289.69,110.87,294.37,114.09,301.61,113.54Z"/>
      <path id="Path_105" data-name="Path 105" class="cls-10" d="M291.27,100.83A1.66,1.66,0,1,0,293,99.7a1.47,1.47,0,0,0-1.73,1.13Z"/>
      <path id="Path_106" data-name="Path 106" class="cls-10" d="M305.72,100.12a1.66,1.66,0,1,0,1.42-1.52A1.49,1.49,0,0,0,305.72,100.12Z"/>
      <path id="Path_107" data-name="Path 107" class="cls-7" d="M293.75,93.43a.34.34,0,0,0,.42-.1,4.05,4.05,0,0,1,2.63-1.18.35.35,0,0,0,.33-.36.34.34,0,0,0-.36-.34,4.7,4.7,0,0,0-3.14,1.44.35.35,0,0,0,.05.49Z"/>
      <path id="Path_108" data-name="Path 108" class="cls-7" d="M303.91,91.57a.58.58,0,0,0,.19,0,4.07,4.07,0,0,1,2.77.77.34.34,0,0,0,.49,0,.35.35,0,0,0,0-.49A4.67,4.67,0,0,0,304,90.9a.347.347,0,0,0-.09.67Z"/>
      <path id="Path_109" data-name="Path 109" class="cls-11" d="M294.82,97.14c.06.87.51,1.54,1,1.51s.83-.78.76-1.65-.51-1.54-1-1.51S294.75,96.26,294.82,97.14Z"/>
      <path id="Path_110" data-name="Path 110" class="cls-11" d="M304.5,96.33c.07.88.51,1.55,1,1.51s.82-.77.75-1.64-.51-1.55-1-1.51S304.44,95.46,304.5,96.33Z"/>
      <path id="Path_111" data-name="Path 111" class="cls-11" d="M303.94,104.93s-4.32.95-6.65-.05c0,0,1.51,3.13,3.88,2.66a3.5,3.5,0,0,0,2.77-2.61Z"/>
      <path id="Path_112" data-name="Path 112" class="cls-11" d="M297.14,96.52s-.8-2.09-1.63-1.87-1.33,2.1-1.33,2.1l-1.29-.56,1.25.06s.5-2,1.34-2C296.66,94.13,297.14,96.52,297.14,96.52Z"/>
      <path id="Path_113" data-name="Path 113" class="cls-11" d="M304,96.27s.47-2.19,1.33-2.11,1.6,1.84,1.6,1.84l1.2-.75-1.24.26s-.79-1.87-1.62-1.81C304.08,93.82,304,96.27,304,96.27Z"/>
      <path id="Path_114" data-name="Path 114" class="cls-10" d="M300.15,101.62a2.35,2.35,0,0,0,.51.16l.14-.74c-.64-.13-.8-.5-.83-.79a1,1,0,0,1,.41-.91.428.428,0,0,1,.43.24l.61-.46a1.09,1.09,0,0,0-1.32-.48,1.66,1.66,0,0,0-.88,1.68,1.54,1.54,0,0,0,.93,1.3Z"/>
      <path id="Path_115" data-name="Path 115" class="cls-7" d="M301.38,86.08s2.6-.85,3.68,3.1c1.87,6.86,3.23,18,7.67,23.52,3.22,4,5.19,2.38,5.19,2.38a16.33,16.33,0,0,0-.5-7.92c-1.38-4,.37-18.19-4.69-23.39s-14-1.87-14-1.87-4.3-2.55-8.5,0-5.39,14-1.1,19.09c0,0-.22-4.31,1.65-6S293.72,84,301.38,86.08Z"/>
      <path id="Path_116" data-name="Path 116" class="cls-2" d="M268.48,29.75c-1.62,5.2,2.35,7.54-.59,11.09-1.81,2.2-4.57.41-4.57.41a35,35,0,0,0-6.1-8c-1.62-1.59-.46-1.61-.46-1.61l-.49-.38c-1.21-.91-2.24-1.41-1.1-1.76s4.85,2,4.85,2c-4.25-4.72-5.85-4.25-4.73-4.73,1.53-.67,5.82,2.86,5.94,3-2.05-3.25-3.86-4.34-2.69-4.45s5.55,5.14,7.13,7.1l.57.71C267.28,28.82,268.48,29.75,268.48,29.75Z"/>
      <path id="Path_117" data-name="Path 117" class="cls-9" d="M265.67,32.42l.57.71a3.68,3.68,0,0,0-.63,3.61A3.27,3.27,0,0,1,265.67,32.42Z"/>
      <path id="Path_118" data-name="Path 118" class="cls-9" d="M260.41,34.29c-.39-.37-2.6-2.49-3.65-2.66l-.49-.38C257.2,30.52,260,33.78,260.41,34.29Z"/>
      <path id="Path_119" data-name="Path 119" class="cls-2" d="M267.89,40.84s-.58,34.26-2.36,41.06c0,0,6.23,21.51,15.56,29.32,0,0,1.45,5.84-6.61,17.33,0,0-15.69-28.07-18.21-44.13l7.05-43.17Z"/>
      <path id="Path_120" data-name="Path 120" class="cls-17" d="M288.51,113.91c.8,2.83,1.24,12.81,10.7,17.92s19.58-2.37,22.33-10.54c0,0,1.15-1.74,4.89,2.48,0,0,19.67,9.53,22.2,14.48s1,23.88-6.85,24.17-17.36-8.47-19.86-2.72-17.13,26.29-47.44,9.77c0,0-3.81-4.77-3.81-9s-1.94-32.27-1.94-32.27-11.17-3.24-8.37-29.61c0,0,7.7,4.26,7.5-9.8,0,0,6.35-3,8.45,8.86,1.41,7.92,9.24,13.71,9.24,13.71S287.29,109.59,288.51,113.91Z"/>
      <path id="Path_121" data-name="Path 121" class="cls-2" d="M353.11,148.07c6.7-2.8,21.42-15,26.67-22l-3.15-2.92s-17.34,11.76-24,13.85-10.17,5.92-9.36,10.65S351.71,148.66,353.11,148.07Z"/>
      <path id="Path_122" data-name="Path 122" class="cls-2" d="M385.27,116.18c-3.26,4.35-7.49,2.51-8.64,7-.72,2.76,2.35,3.94,2.35,3.94a35.261,35.261,0,0,1,10.06.25c2.24.39,1.58-.57,1.58-.57l.59.18c1.45.45,2.46,1,2.07-.14-.42-1.28-4.5-2.74-4.5-2.74,6.32.68,6.88,2.26,6.61,1.06-.36-1.63-5.73-3-5.89-3.07,3.84-.25,5.78.59,5.18-.43s-7.41-1.48-9.92-1.62h-.92C386.73,116.6,385.27,116.18,385.27,116.18Z"/>
      <path id="Path_123" data-name="Path 123" class="cls-9" d="M384.76,120h-.92a3.68,3.68,0,0,1-2.55,2.63A3.29,3.29,0,0,0,384.76,120Z"/>
      <path id="Path_124" data-name="Path 124" class="cls-9" d="M386.33,125.37c.52.11,3.53.66,4.29,1.4l.59.18C391.26,125.77,387,125.42,386.33,125.37Z"/>
      <path id="Path_125" data-name="Path 125" class="cls-2" d="M196.75,193.75a85.63,85.63,0,0,1,12.69-25.69l12.72,2.11.13-.23,1,.2h.15l13.14,2.63A122.891,122.891,0,0,1,246,198.22c3.76,14.89-7.49,52.5-7.49,52.5s6.34,17.65-8.33,63.65h-6.91s2.58-57.3,1.58-63.65c-.87-5.48-2-25.55-1.41-40.92a9,9,0,0,1-2.5.18h0c0,15.37-1.74,35.37-2.78,40.81-1.22,6.32-.57,63.7-.57,63.7l-6.91-.23c-13.11-46.47-6.18-63.93-6.18-63.93S192.49,208.5,196.75,193.75Z"/>
      <path id="Path_126" data-name="Path 126" class="cls-5" d="M256,123.93c-.45-7.8-24.82-4.36-24.82-4.36s-15.81-11.08-20.7-7.53c-1.73,1.25-2.52,8.68-2.83,17.76-1.84,3.25-3.43,8.16-.16,12.61.06,13.34.67,26,.67,26a32.32,32.32,0,0,0,28.52,5.28s5.84-12.39,11.09-24.95c3.38-2.73,4.11-6.7,4-10C254.28,132.07,256.09,126.36,256,123.93Z"/>
      <path id="Path_127" data-name="Path 127" class="cls-12" d="M252.89,84.16c-7.07-12.07-24.95-10.59-31.06-2.72-7.4,9.52-3.47,31.69-3.47,31.69s17-14.19,27.25,5.21C245.61,118.34,260.81,97.67,252.89,84.16Z"/>
      <path id="Path_128" data-name="Path 128" class="cls-5" d="M207.6,320.12c.42-2.87-.64-4.92.11-6.31,1.16-2.14,2.39.57,2.39.57.1-3.26,5.57-3.26,6.12-1.76a9.329,9.329,0,0,0,.48,1.1c.34-.79.92-1.55,1.67-1.1,2.92,1.75-.72,6.26,1.94,9.56,3.39,4.19,1.31,10.52,1.31,10.52H205.4C203.5,323.82,207.18,323,207.6,320.12Z"/>
      <path id="Path_129" data-name="Path 129" class="cls-13" d="M217.62,319.05s-3.84-2-8.92.65l1-1.83a8.93,8.93,0,0,1,7.45-.54Z"/>
      <path id="Path_130" data-name="Path 130" class="cls-13" d="M218.28,322.09a14.56,14.56,0,0,0-10.54.78l1-1.95s4.83-2.09,8.92-.52Z"/>
      <path id="Path_131" data-name="Path 131" class="cls-5" d="M233.52,320.12c-.42-2.87.64-4.92-.11-6.31-1.16-2.14-2.39.57-2.39.57-.1-3.26-5.57-3.26-6.12-1.76a9.329,9.329,0,0,1-.48,1.1c-.34-.79-.92-1.55-1.66-1.1-2.93,1.75.71,6.26-1.95,9.56-3.39,4.19-1.3,10.52-1.3,10.52h16.21C237.62,323.82,233.94,323,233.52,320.12Z"/>
      <path id="Path_132" data-name="Path 132" class="cls-13" d="M223.51,319.05s3.83-2,8.91.65l-1-1.83a8.93,8.93,0,0,0-7.45-.54Z"/>
      <path id="Path_133" data-name="Path 133" class="cls-13" d="M222.84,322.09a14.56,14.56,0,0,1,10.54.78l-1-1.95s-4.83-2.09-8.91-.52Z"/>
      <path id="Path_134" data-name="Path 134" class="cls-9" d="M230,102.1a37,37,0,0,1-2.76,16.12s2.9,5.34,10.67,2.09c0,0-1.31-7.26,3.83-15.87C245.15,98.67,230,102.1,230,102.1Z"/>
      <path id="Path_135" data-name="Path 135" class="cls-2" d="M247.17,98.1s3.69-2.52,3.4,1.18c-.34,4.29-4.48,5.28-5,3.8S247.17,98.1,247.17,98.1Z"/>
      <path id="Path_136" data-name="Path 136" class="cls-2" d="M225.31,94.26s-2.53-3.69-3.6-.13c-1.22,4.13,2.28,6.54,3.28,5.34S225.31,94.26,225.31,94.26Z"/>
      <path id="Path_137" data-name="Path 137" class="cls-2" d="M233.75,111.38c6.91,1.29,11.65-2.5,14.17-16,1.31-7-1.45-11.93-9.19-13.37s-11.8,2.23-13.11,9.22C222.91,105.74,226.61,110.05,233.75,111.38Z"/>
      <path id="Path_138" data-name="Path 138" class="cls-10" d="M227,96.44a1.67,1.67,0,1,0,2-.65A1.5,1.5,0,0,0,227,96.44Z"/>
      <path id="Path_139" data-name="Path 139" class="cls-10" d="M241.16,99.47a1.67,1.67,0,1,0,1.77-1.1,1.49,1.49,0,0,0-1.77,1.1Z"/>
      <path id="Path_140" data-name="Path 140" class="cls-12" d="M231.32,89.93a.36.36,0,0,0,.43,0,4,4,0,0,1,2.84-.47.353.353,0,1,0,.15-.69,4.69,4.69,0,0,0-3.4.59.36.36,0,0,0-.08.49Z"/>
      <path id="Path_141" data-name="Path 141" class="cls-12" d="M241.62,90.74a.3.3,0,0,0,.17.08,4,4,0,0,1,2.48,1.46.35.35,0,0,0,.49.1.36.36,0,0,0,.1-.49,4.67,4.67,0,0,0-3-1.76.35.35,0,0,0-.28.61Z"/>
      <path id="Path_142" data-name="Path 142" class="cls-11" d="M231.4,93.78c-.16.86.1,1.63.57,1.72s1-.54,1.16-1.39-.1-1.63-.58-1.72S231.56,92.93,231.4,93.78Z"/>
      <path id="Path_143" data-name="Path 143" class="cls-11" d="M240.82,95.68c-.16.86.1,1.63.58,1.72s1-.54,1.15-1.39-.1-1.63-.57-1.72S241,94.83,240.82,95.68Z"/>
      <path id="Path_144" data-name="Path 144" class="cls-11" d="M238.21,103.67s-4.42-.2-6.42-1.77c0,0,.66,3.42,3.07,3.57a3.51,3.51,0,0,0,3.35-1.8Z"/>
      <path id="Path_145" data-name="Path 145" class="cls-11" d="M233.8,93.79s-.23-2.23-1.09-2.23-1.83,1.69-1.83,1.69l-1.1-.88,1.19.39s1-1.77,1.82-1.62C234,91.35,233.8,93.79,233.8,93.79Z"/>
      <path id="Path_146" data-name="Path 146" class="cls-11" d="M240.46,95.3s1-2,1.83-1.69,1.09,2.23,1.09,2.23l1.35-.42-1.25-.07s-.29-2-1.11-2.16C241.2,93,240.46,95.3,240.46,95.3Z"/>
      <path id="Path_147" data-name="Path 147" class="cls-10" d="M235.39,99.49a2,2,0,0,0,.45.28l.33-.68a.87.87,0,0,1-.59-1,1,1,0,0,1,.62-.77c.14,0,.26.1.36.34l.7-.29a1.08,1.08,0,0,0-1.14-.8A1.65,1.65,0,0,0,234.83,98a1.57,1.57,0,0,0,.56,1.49Z"/>
      <path id="Path_148" data-name="Path 148" class="cls-12" d="M224.86,96.63S222,88.25,227.2,81.38s19.29-1.78,21.87,3.52-2.46,16-2.46,16,3.9-14.19-4-16.53c0,0-1,3.55-7,6.07s-9.56,2.11-9.56,2.11Z"/>
      <path id="Path_149" data-name="Path 149" class="cls-9" d="M249.63,119.39s8.88.17,30.65,22c3,3-.42,12.54-9.45,6.68-9.93-6.45-16.52-13.14-18.6-10.66C252.23,137.43,247.05,124.91,249.63,119.39Z"/>
      <path id="Path_150" data-name="Path 150" class="cls-2" d="M281.57,140.16c-.07-7.26-5.77-25.48-10.32-33L267.36,109s4.34,20.5,3.77,27.45,1.63,11.65,6.32,12.69S281.58,141.68,281.57,140.16Z"/>
      <path id="Path_151" data-name="Path 151" class="cls-2" d="M264.17,98.34c2.8,4.66-.5,7.88,3.2,10.64,2.28,1.7,4.54-.69,4.54-.69a35.3,35.3,0,0,1,4-9.23c1.21-1.92.08-1.67.08-1.67.12-.17.25-.33.38-.48,1-1.18,1.85-1.9.66-2-1.35-.09-4.24,3.13-4.24,3.13,3-5.6,4.68-5.52,3.48-5.72-1.65-.29-5,4.16-5.07,4.29,1.22-3.64,2.73-5.12,1.56-5s-4.18,6.3-5.25,8.57c-.24.52-.38.84-.38.84C265.12,97.15,264.17,98.34,264.17,98.34Z"/>
      <path id="Path_152" data-name="Path 152" class="cls-9" d="M267.53,100.26c-.24.52-.38.84-.38.84a3.68,3.68,0,0,1,1.47,3.35,3.29,3.29,0,0,0-1.09-4.19Z"/>
      <path id="Path_153" data-name="Path 153" class="cls-9" d="M273.09,100.84c.29-.45,1.94-3,2.92-3.45.12-.17.25-.33.38-.48C275.32,96.42,273.38,100.25,273.09,100.84Z"/>
      <path id="Path_154" data-name="Path 154" class="cls-9" d="M213.43,111.35s-8.77-1.85-34.55,15.08c-3.58,2.35-2.16,12.36,7.88,8.47,11-4.28,19.38-9.53,20.9-6.69C207.66,128.21,214.83,117.28,213.43,111.35Z"/>
      <path id="Path_155" data-name="Path 155" class="cls-2" d="M177.88,124.94c1.55-7.09,10.86-23.76,16.85-30.19l3.44,2.58s-8.45,19.16-9.31,26.09-4,11.07-8.79,11.12S177.55,126.43,177.88,124.94Z"/>
      <path id="Path_156" data-name="Path 156" class="cls-2" d="M203.47,87.57c-3.7,4-1.13,7.82-5.31,9.76-2.58,1.2-4.3-1.6-4.3-1.6a35.11,35.11,0,0,0-2.05-9.86c-.78-2.13.27-1.66.27-1.66-.09-.19-.18-.36-.28-.54-.7-1.35-1.42-2.24-.23-2.07s3.5,3.93,3.5,3.93c-1.8-6.09-3.45-6.35-2.23-6.31,1.67.06,4,5.09,4.08,5.24-.45-3.81-1.62-5.57-.51-5.17s2.79,7,3.38,9.48c.13.55.2.89.2.89C202.79,86.21,203.47,87.57,203.47,87.57Z"/>
      <path id="Path_157" data-name="Path 157" class="cls-9" d="M199.79,88.77c.13.55.2.89.2.89a3.71,3.71,0,0,0-2.13,3,3.29,3.29,0,0,1,1.93-3.89Z"/>
      <path id="Path_158" data-name="Path 158" class="cls-9" d="M194.23,88.19c-.19-.5-1.28-3.36-2.15-4-.09-.19-.18-.36-.28-.54C193,83.4,194.07,87.55,194.23,88.19Z"/>
      <path id="Path_159" data-name="Path 159" class="cls-6" d="M208,165.81s-29.72,40.69-20.39,83.79c0,0,10.06,9.35,17.94,6.1s16,8.49,23.09,4.75,13.26-6.5,18.15-4.5,13.12-6.35,13.12-6.35-3.64-47.65-21.7-79.13C238.21,170.47,223.5,177.2,208,165.81Z"/>
      <path id="Path_160" data-name="Path 160" class="cls-18" d="M220.31,322.18a13.35,13.35,0,0,1,1.94,10.52h-2.74a30.651,30.651,0,0,1,.8-10.52Z"/>
      <path id="Path_161" data-name="Path 161" class="cls-2" d="M123.85,211.58s5.43,17.08,18.68,40c0,0-2.27,24.27,35.34,69.26l5.19-2.85s-19.34-45.24-22.49-58.65-1.8-31.3-11.92-59.27Z"/>
      <path id="Path_162" data-name="Path 162" class="cls-19" d="M146.79,177.16,129,169.94c-3.1,9.86-11.08,17-10.45,32.48.32,7.67,5.3,15.54,5.3,15.54,21-.76,28.16-9.56,28.16-9.56l-3.19-14.8S146.66,183.6,146.79,177.16Z"/>
      <path id="Path_163" data-name="Path 163" class="cls-2" d="M104.61,200.14s-.58,17.9,4.26,43.92c0,0-10.24,22.12,10.2,77.09l5.85-1s-3.14-49.1-1.63-62.79,9.37-25.75,8.54-59.85Z"/>
      <path id="Path_164" data-name="Path 164" class="cls-7" d="M146.79,177.16l-7,11.94L138,192l-3.64,6.18-2.34,16.51-.11.74v.36c-18.05-2.08-27.66,3.54-27.66,3.54l-.17-1.55v-.5l-.1-.27c-1.68-4.92-4-18.22-1.24-27.27,4.57-14.81,12.78-13.41,19-21.67C121.7,168.06,146.79,177.16,146.79,177.16Z"/>
      <path id="Path_165" data-name="Path 165" class="cls-4" d="M115.49,316s2.32,5.14,1.6,8.59c-.43,2.08-2.66,4.75-.87,8.08h14.05a6.91,6.91,0,0,0-1.68-7.25c-1.82-1.94-3.16-10.92-3.16-10.92-1.58.25-1.17,1.5-1.17,1.5s0-4.23-3.5-3.66c-4.25.68-3.25,4.41-3.25,4.41a1.44,1.44,0,0,0-2.02-.75Z"/>
      <path id="Path_166" data-name="Path 166" class="cls-4" d="M199.85,332.7H176.22s-.66-5,.38-6.7c1.5-2.42-3.69-7.78-3.69-7.78s3.15-3.93,5.94-1.7c0,0-.25-4.92,3.25-4.87,0,0,3.25,8.34,7,11.32a2.472,2.472,0,0,0,.26.19c2.81,2,7.85,2.53,9.83,5.28a5.08,5.08,0,0,1,.66,4.26Z"/>
      <path id="Path_167" data-name="Path 167" class="cls-19" d="M133.05,215l-.22.71-.88-.26c-14.83-4.12-25,.73-27.88,2.35v-.5l-.1-.27a30.839,30.839,0,0,1,7.3-2.8,102.57,102.57,0,0,1,0-21.49c1.29-11.49,12.54-18.42,12.66-18.49l.38.65c-.09,0-8,5-11.17,13.3,10.44-.12,14.59-13.18,14.63-13.31l.72.22c0,.14-4.39,13.84-15.49,13.84h-.13a18.58,18.58,0,0,0-.86,3.88A102.059,102.059,0,0,0,112,214a40.75,40.75,0,0,1,20.11.66Z"/>
      <path id="Path_168" data-name="Path 168" class="cls-19" d="M140.69,180.55c0,.1-1,10.34-5.75,18.08l.64.39c4.82-7.89,5.85-18.29,5.85-18.4Z"/>
      <path id="Path_169" data-name="Path 169" class="cls-4" d="M173,176s-1.75,8.25-3.63,8.88-.25-4.24-.25-4.24-13-5.23-18.3-5.62S153,164.45,173,176Z"/>
      <path id="Path_170" data-name="Path 170" class="cls-4" d="M170.72,177.45S157,171.2,147.56,171.7s13.16-31,18.78-27.75S173.22,173.45,170.72,177.45Z"/>
      <path id="Path_171" data-name="Path 171" class="cls-4" d="M136.8,117s1.34-3.43,8.13-4.06,12.76,6.43,11.46,10.59S136.8,117,136.8,117Z"/>
      <path id="Path_172" data-name="Path 172" class="cls-5" d="M147.56,87.21s-.47-8.76-8.66-10.13-14.68.62-11.81,12.37,1,16.43-4.37,17-5-5.76-5-5.76a7.06,7.06,0,0,0,4.75,7.92s-6.21.5-4,4.37,9.08,3.25,11.78,0c0,0,.2,2.64,3.57,1.7a2,2,0,0,1-1.24-2.2c.12-1.75,9.4,1.21,12.32-9.74S142,90,142,90Z"/>
      <path id="Path_173" data-name="Path 173" class="cls-2" d="M163.14,121.93c-5-.23-5.16,4.72-2.62,9.55s26.84,26.7,30.59,22.58c1.44-1.59-2.73-8.89-2.73-8.89a191.009,191.009,0,0,1-15.92-16.25C168.33,124.24,165.73,122.06,163.14,121.93Z"/>
      <path id="Path_174" data-name="Path 174" class="cls-2" d="M194.41,146.16c1.36-7.13-.63-26.11-3.61-34.39l-4.17,1s.22,20.94-1.72,27.65-.69,11.74,3.7,13.68S194.12,147.66,194.41,146.16Z"/>
      <path id="Path_175" data-name="Path 175" class="cls-2" d="M181.78,107.19c4.53,3,2.93,7.34,7.45,8.24a2.86,2.86,0,0,0,2.23-.42,3.35,3.35,0,0,0,1.35-3.32,38,38,0,0,1-.09-8.89c.25-2.26-.66-1.55-.66-1.55a2.311,2.311,0,0,1,.14-.59c.37-1.48.86-2.52-.25-2.07s-2.48,4.65-2.48,4.65c.31-6.35,1.86-7,.68-6.66-1.6.45-2.7,5.89-2.73,6-.47-3.81.26-5.8-.72-5.14s-1.06,7.48-1.06,10v.92C182.13,105.71,181.78,107.19,181.78,107.19Z"/>
      <path id="Path_176" data-name="Path 176" class="cls-9" d="M185.64,107.49v.92a3.66,3.66,0,0,1,2.77,2.4,3.29,3.29,0,0,0-2.77-3.32Z"/>
      <path id="Path_177" data-name="Path 177" class="cls-9" d="M190.91,105.62c.07-.53.45-3.57,1.15-4.37a2.311,2.311,0,0,1,.14-.59C191,100.67,190.91,105,190.91,105.62Z"/>
      <path id="Path_178" data-name="Path 178" class="cls-4" d="M155.85,121.62s6.74-2.78,15,2.15A44.26,44.26,0,0,1,184,136.53s.08-14.69,2.57-17.14c0,0,3.08,3.7,6.91,4.38,0,0,9.83,20.36,3.58,33s-24.75,0-24.75,0Z"/>
      <path id="Path_179" data-name="Path 179" class="cls-3" d="M121.66,168.06s5-13,2.43-20.4c-4.32-12.66-2-23.35,2.57-26.51,7.34-5.12,22.68.73,22.68.73s14.94-1.59,16.47,3,5.09,22.93-2,32.73-17,25-17,25S125.66,180.59,121.66,168.06Z"/>
      <path id="Path_180" data-name="Path 180" class="cls-4" d="M130.27,176s-2.05,7-4.68,6.58-14-6.55-14-7.56,1.62-3.27,1.62-3.27-.63-5.37.75-5.87S130.27,176,130.27,176Z"/>
      <path id="Path_181" data-name="Path 181" class="cls-17" d="M154.26,119.39s15.58,27.08,14.83,61.2c0,0,7.09-1.89,8.42-14.64s-3.23-37.18-9.45-43.59C168.06,122.36,163.6,117.71,154.26,119.39Z"/>
      <path id="Path_182" data-name="Path 182" class="cls-17" d="M141.09,118.27s11.63,41.56-10.82,57.68a26,26,0,0,1-16.18-7.89c-6.75-7.36,2.38-46.91,2.38-46.91S128.49,113.2,141.09,118.27Z"/>
      <path id="Path_183" data-name="Path 183" class="cls-4" d="M143.48,131.28s-.06-12.49-1.47-15.79S136.8,117,136.8,117,137.84,122.81,143.48,131.28Z"/>
      <path id="Path_184" data-name="Path 184" class="cls-4" d="M159.29,130.09s1.43-12.3-2.82-14.46-4.33,5.52-4.33,5.52S155.87,120.77,159.29,130.09Z"/>
      <path id="Path_185" data-name="Path 185" class="cls-9" d="M147.06,104.87a37,37,0,0,1-2.13,16.21s4.48,6.62,8.76,2.27a42.73,42.73,0,0,1,5.2-16.59C162.11,100.86,147.06,104.87,147.06,104.87Z"/>
      <path id="Path_186" data-name="Path 186" class="cls-2" d="M140.19,105.15s-3.78-2.39-3.35,1.3c.49,4.28,4.66,5.12,5.11,3.62S140.19,105.15,140.19,105.15Z"/>
      <path id="Path_187" data-name="Path 187" class="cls-2" d="M161.89,100.52s2.41-3.77,3.59-.25c1.38,4.08-2,6.61-3.08,5.45S161.89,100.52,161.89,100.52Z"/>
      <path id="Path_188" data-name="Path 188" class="cls-2" d="M154.08,117.94c-6.86,1.54-11.74-2.08-14.75-15.52-1.55-6.93,1-12,8.71-13.7s11.88,1.81,13.43,8.75C164.7,111.91,161.17,116.35,154.08,117.94Z"/>
      <path id="Path_189" data-name="Path 189" class="cls-10" d="M160.27,102.77a1.66,1.66,0,1,1-2-.58,1.5,1.5,0,0,1,2,.58Z"/>
      <path id="Path_190" data-name="Path 190" class="cls-10" d="M146.24,106.3a1.67,1.67,0,1,1-1.8-1,1.5,1.5,0,0,1,1.8,1Z"/>
      <path id="Path_191" data-name="Path 191" class="cls-5" d="M155.49,96.51a.35.35,0,0,1-.19-.06,4,4,0,0,0-2.85-.37.34.34,0,0,1-.43-.25.35.35,0,0,1,.25-.43,4.74,4.74,0,0,1,3.42.46.35.35,0,0,1-.2.65Z"/>
      <path id="Path_192" data-name="Path 192" class="cls-5" d="M142.57,99.4a.41.41,0,0,1-.18-.05.36.36,0,0,1-.12-.48,4.74,4.74,0,0,1,2.9-1.88.36.36,0,0,1,.41.28.35.35,0,0,1-.28.41,4.12,4.12,0,0,0-2.42,1.55.37.37,0,0,1-.31.17Z"/>
      <path id="Path_193" data-name="Path 193" class="cls-11" d="M155.79,100.27c.19.85,0,1.63-.51,1.73s-1-.49-1.2-1.35,0-1.63.51-1.73S155.6,99.42,155.79,100.27Z"/>
      <path id="Path_194" data-name="Path 194" class="cls-11" d="M146.26,102.4c.19.86,0,1.63-.51,1.74s-1-.5-1.2-1.35,0-1.63.51-1.74S146.07,101.55,146.26,102.4Z"/>
      <path id="Path_195" data-name="Path 195" class="cls-11" d="M149.6,110.18a12.11,12.11,0,0,0,6.59-2s.75,5.12-2.75,5.58C151,114.1,149.6,110.18,149.6,110.18Z"/>
      <path id="Path_196" data-name="Path 196" class="cls-11" d="M153.39,100.36s.16-2.24,1-2.27,1.88,1.62,1.88,1.62l1.07-.91-1.18.43s-1.05-1.73-1.87-1.56C153.15,97.93,153.39,100.36,153.39,100.36Z"/>
      <path id="Path_197" data-name="Path 197" class="cls-11" d="M146.79,102.11s-1.1-2-1.89-1.62-1,2.27-1,2.27l-1.36-.37,1.25-.12s.21-2,1-2.2C146,99.81,146.79,102.11,146.79,102.11Z"/>
      <path id="Path_198" data-name="Path 198" class="cls-10" d="M151.57,106.42l-.36-.67a.88.88,0,0,0,.56-1c-.08-.4-.41-.73-.65-.74s-.26.1-.35.35l-.71-.27a1.09,1.09,0,0,1,1.12-.84,1.68,1.68,0,0,1,1.34,1.35,1.65,1.65,0,0,1-.95,1.82Z"/>
      <path id="Path_199" data-name="Path 199" class="cls-11" d="M140.73,107.57a42.71,42.71,0,0,1-1.17-7,10.56,10.56,0,0,1,7.35-11,14.89,14.89,0,0,1,5.47-.57,8.5,8.5,0,0,1,7,5.1,48.241,48.241,0,0,1,3.05,9.19,23.13,23.13,0,0,0,.08-10.16c-1.14-6.16-6.16-11.29-17.91-8.75C134.59,86.53,130.27,98.62,140.73,107.57Z"/>
      <path id="Path_200" data-name="Path 200" class="cls-11" d="M155.37,87.46S154.09,97,141.09,98.2c0,0,7.88-2.77,7.88-8.31,0,0-3.13,7.09-10.63,6.26C138.34,96.15,137.64,84.74,155.37,87.46Z"/>
      <path id="Path_201" data-name="Path 201" class="cls-2" d="M115.81,124.2c6.33,1.89,10.61,12.14,9.27,13.3s-31.2,6.95-31.2,6.95l18.19,26.24L109,175.17s-28.38-25.08-28.22-33.68S115.81,124.2,115.81,124.2Z"/>
      <path id="Path_202" data-name="Path 202" class="cls-2" d="M112.15,169.91a59.764,59.764,0,0,1,6.44,1.06c2.49.62,5.81,1.24,5.91,1.76s-5.49,0-5.49,0,4.56,1.87,4.66,2.6-5.81-.53-5.81-.53,3.74,2.28,3.53,2.91-4.81-.94-4.81-.94a14.57,14.57,0,0,0,1.75,3.22s-.89.49-2.7-1.52-4.7-1.36-7-3.14S110.07,169.64,112.15,169.91Z"/>
      <path id="Path_203" data-name="Path 203" class="cls-4" d="M116.47,121.15s11.12,1.27,11.62,17.66S103.74,150,103.74,150s6.07,7,4.19,14.76c0,0-6.76-.05-6.55,3.34,0,0-10.42.65-20.6-13.48S84.93,124.65,116.47,121.15Z"/>
      <path id="Path_204" data-name="Path 204" class="cls-4" d="M172.85,136.85c.73,2.41.16,4.72-1.27,5.15s-3.2-1.16-3.93-3.56-.16-4.71,1.27-5.15S172.12,134.45,172.85,136.85Z"/>
      <ellipse id="Ellipse_6" data-name="Ellipse 6" class="cls-4" cx="4.98" cy="4.14" rx="4.98" ry="4.14" transform="translate(132.441 144.304) rotate(-87.45)"/>
      <path id="Path_205" data-name="Path 205" class="cls-17" d="M103.72,133.05c-2.68.6-5.26-.72-5.76-3s1.27-4.52,4-5.12,5.27.72,5.77,3S106.4,132.45,103.72,133.05Z"/>
      <path id="Path_206" data-name="Path 206" class="cls-17" d="M116.77,327.53s3.83-5,11.67-1a2.56,2.56,0,0,1-3.34,2.84C121.44,328.7,119.27,331.37,116.77,327.53Z"/>
      <path id="Path_207" data-name="Path 207" class="cls-17" d="M199.19,328.44c-5,2.42-15.42-3.32-15.42-3.32,1.65.28,4.12-1,5.59-2C192.17,325.18,197.21,325.69,199.19,328.44Z"/>
    </g>
  </g>
</svg>
