<svg xmlns="http://www.w3.org/2000/svg" width="90" height="90" viewBox="0 0 90 90">
  <defs>
    <style>
      .cls-1 {
        fill: #e73b52;
      }

      .cls-2 {
        fill: #fff;
      }
    </style>
  </defs>
  <g id="Group_22" data-name="Group 22" transform="translate(-143 -133)">
    <circle id="Ellipse_4" data-name="Ellipse 4" class="cls-1" cx="45" cy="45" r="45" transform="translate(143 133)"/>
    <path id="Icon_awesome-times" data-name="Icon awesome-times" class="cls-2" d="M17.066,18,24.1,10.964a2.212,2.212,0,0,0,0-3.128L22.539,6.273a2.212,2.212,0,0,0-3.128,0l-7.036,7.036L5.339,6.273a2.212,2.212,0,0,0-3.128,0L.648,7.836a2.212,2.212,0,0,0,0,3.128L7.684,18,.648,25.036a2.212,2.212,0,0,0,0,3.128l1.564,1.564a2.212,2.212,0,0,0,3.128,0l7.036-7.036,7.036,7.036a2.212,2.212,0,0,0,3.128,0L24.1,28.164a2.212,2.212,0,0,0,0-3.128Z" transform="translate(175.475 160)"/>
  </g>
</svg>
